<svg width="17" height="17" viewBox="0 0 17 17" fill="none" xmlns="http://www.w3.org/2000/svg">
<path d="M0.829717 2.42173L0.829751 2.42176L6.90917 8.5L0.829751 14.5782L0.829717 14.5783C0.725183 14.6828 0.642263 14.8069 0.585691 14.9435C0.529118 15.0801 0.5 15.2264 0.5 15.3743C0.5 15.5221 0.529118 15.6685 0.585691 15.8051C0.642263 15.9417 0.725183 16.0658 0.829717 16.1703C0.934249 16.2748 1.05835 16.3577 1.19493 16.4143C1.33151 16.4709 1.4779 16.5 1.62572 16.5C1.77355 16.5 1.91994 16.4709 2.05652 16.4143C2.1931 16.3577 2.3172 16.2748 2.42173 16.1703L2.42176 16.1702L8.5 10.0908L14.5782 16.1702L14.5783 16.1703C14.6828 16.2748 14.8069 16.3577 14.9435 16.4143C15.0801 16.4709 15.2264 16.5 15.3743 16.5C15.5221 16.5 15.6685 16.4709 15.8051 16.4143C15.9417 16.3577 16.0658 16.2748 16.1703 16.1703C16.2748 16.0658 16.3577 15.9417 16.4143 15.8051C16.4709 15.6685 16.5 15.5221 16.5 15.3743C16.5 15.2264 16.4709 15.0801 16.4143 14.9435C16.3577 14.8069 16.2748 14.6828 16.1703 14.5783L16.1702 14.5782L10.0908 8.5L16.1702 2.42176L16.1703 2.42173C16.2748 2.3172 16.3577 2.1931 16.4143 2.05652C16.4709 1.91994 16.5 1.77355 16.5 1.62572C16.5 1.4779 16.4709 1.33151 16.4143 1.19493C16.3577 1.05835 16.2748 0.934249 16.1703 0.829717C16.0658 0.725183 15.9417 0.642263 15.8051 0.585691C15.6685 0.529118 15.5221 0.5 15.3743 0.5C15.2264 0.5 15.0801 0.529118 14.9435 0.585691C14.8069 0.642263 14.6828 0.725183 14.5783 0.829717L14.5782 0.829751L8.5 6.90917L2.42176 0.829751L2.42173 0.829717C2.3172 0.725183 2.1931 0.642263 2.05652 0.585691C1.91994 0.529118 1.77356 0.5 1.62572 0.5C1.47789 0.5 1.33151 0.529118 1.19493 0.585691C1.05835 0.642263 0.93425 0.725183 0.829717 0.829717C0.725183 0.93425 0.642263 1.05835 0.585691 1.19493C0.529118 1.33151 0.5 1.47789 0.5 1.62572C0.5 1.77356 0.529118 1.91994 0.585691 2.05652C0.642263 2.1931 0.725183 2.3172 0.829717 2.42173Z" fill="#4442C0" stroke="#4442C0"/>
</svg>
